{"title":"Monsters University 2013 R6 720p HDRIP x264 SmY","uid":8884925,"size":2516177662,"categoryP":"video","categoryS":"hd___movies","magnet":"?xt=urn:btih:5abfbc5ec464de7c92cc7888d35bcd2409b0040d&amp;dn=Monsters+University+2013+R6+720p+HDRIP+x264+SmY&amp;tr=udp%3A%2F%2Ftracker.openbittorrent.com%3A80&amp;tr=udp%3A%2F%2Fopen.demonii.com%3A1337&amp;tr=udp%3A%2F%2Ftracker.coppersurfer.tk%3A6969&amp;tr=udp%3A%2F%2Fexodus.desync.com%3A6969","seeders":2,"leechers":0,"uploader":"TeX","files":2,"time":1378428474,"description":"[img]http://s15.postimg.org/40fkby7h7/673341321.jpg[/img]\n\n\nFormat : Matroska\n Format version : Version 4 / Version 2\n File size : 2.34 GiB\n Duration : 1h 34mn\n Overall bit rate : 3 536 Kbps\n Encoded date : UTC 2010-02-22 21:41:31\n Writing application : mkvmerge v5.9.0 ('On The Loose') built on Dec 9 2012 15:37:01\n Writing library : libebml v1.3.0 + libmatroska v1.4.0\n Video #1\n ID : 1\n Format : AVC\n Format/Info : Advanced Video Codec\n Format profile : &lt;a class=&quot;__cf_email__&quot; href=&quot;/cdn-cgi/l/email-protection&quot; data-cfemail=&quot;0149686669414d322f30&quot;&gt;[email&amp;#160;protected]&lt;/a&gt;&lt;script cf-hash='f9e31' type=&quot;text/javascript&quot;&gt;\n/* &lt;![CDATA[ */!function(){try{var t=&quot;currentScript&quot;in document?document.currentScript:function(){for(var t=document.getElementsByTagName(&quot;script&quot;),e=t.length;e--;)if(t[e].getAttribute(&quot;cf-hash&quot;))return t[e]}();if(t&amp;&amp;t.previousSibling){var e,r,n,i,c=t.previousSibling,a=c.getAttribute(&quot;data-cfemail&quot;);if(a){for(e=&quot;&quot;,r=parseInt(a.substr(0,2),16),n=2;a.length-n;n+=2)i=parseInt(a.substr(n,2),16)^r,e+=String.fromCharCode(i);e=document.createTextNode(e),c.parentNode.replaceChild(e,c)}}}catch(u){}}();/* ]]&gt; */&lt;/script&gt;\n Format settings, CABAC : Yes\n Format settings, ReFrames : 4 frames\n Muxing mode : Header stripping\n Codec ID : V_MPEG4/ISO/AVC\n Duration : 1h 34mn\n Bit rate : 3 000 Kbps\n Width : 1 280 pixels\n Height : 684 pixels\n Display aspect ratio : 1.85:1\n Frame rate : 25.000 fps\n Color space : YUV\n Chroma subsampling : 4:2:0\n Bit depth : 8 bits\n Scan type : Progressive\n Bits/(Pixel*Frame) : 0.137\n Stream size : 1.94 GiB (83%)\n Writing library : x264 core 116 r2074 2641b9e\n \n Audio #2\n ID : 2\n Format : AC-3\n Format/Info : Audio Coding 3\n Mode extension : CM (complete main)\n Format settings, Endianness : Big\n Muxing mode : Header stripping\n Codec ID : A_AC3\n Duration : 1h 34mn\n Bit rate mode : Constant\n Bit rate : 320 Kbps\n Channel(s) : 2 channels\n Channel positions : Front: L R\n Sampling rate : 48.0 KHz\n Bit depth : 16 bits\n Compression mode : Lossy\n Stream size : 217 MiB (9%)\n Default : No\n Forced : No\n Audio #3\n ID : 3\n Format : AC-3\n Format/Info : Audio Coding 3\n Mode extension : CM (complete main)\n Format settings, Endianness : Big\n Muxing mode : Header stripping\n Codec ID : A_AC3\n Duration : 1h 34mn\n Bit rate mode : Constant\n Bit rate : 224 Kbps\n Channel(s) : 2 channels\n Channel positions : Front: L R\n Sampling rate : 48.0 KHz\n Bit depth : 16 bits\n Compression mode : Lossy\n Stream size : 152 MiB (6%)\n Default : Yes\n Forced : No\n &lt;a href=&quot;\nhttp://i.imgur.com/sPdvtC7.jpg&quot; rel=&quot;nofollow&quot; target=&quot;_NEW&quot;&gt;\nhttp://i.imgur.com/sPdvtC7.jpg&lt;/a&gt;\n &lt;a href=&quot;\nhttp://i.imgur.com/vTixDYa.jpg&quot; rel=&quot;nofollow&quot; target=&quot;_NEW&quot;&gt;\nhttp://i.imgur.com/vTixDYa.jpg&lt;/a&gt;\n &lt;a href=&quot;\nhttp://i.imgur.com/pNtHImX.jpg&quot; rel=&quot;nofollow&quot; target=&quot;_NEW&quot;&gt;\nhttp://i.imgur.com/pNtHImX.jpg&lt;/a&gt;\n &lt;a href=&quot;\nhttp://i.imgur.com/jBSld9R.jpg&quot; rel=&quot;nofollow&quot; target=&quot;_NEW&quot;&gt;\nhttp://i.imgur.com/jBSld9R.jpg&lt;/a&gt;\n &lt;a href=&quot;\nhttp://i.imgur.com/sJn8laO.jpg&quot; rel=&quot;nofollow&quot; target=&quot;_NEW&quot;&gt;\nhttp://i.imgur.com/sJn8laO.jpg&lt;/a&gt;","torrent":{"xt":"urn:btih:5abfbc5ec464de7c92cc7888d35bcd2409b0040d","amp;dn":"Monsters+University+2013+R6+720p+HDRIP+x264+SmY","amp;tr":["udp%3A%2F%2Ftracker.openbittorrent.com%3A80","udp%3A%2F%2Fopen.demonii.com%3A1337","udp%3A%2F%2Ftracker.coppersurfer.tk%3A6969","udp%3A%2F%2Fexodus.desync.com%3A6969"],"infoHash":"5abfbc5ec464de7c92cc7888d35bcd2409b0040d","infoHashBuffer":{"type":"Buffer","data":[90,191,188,94,196,100,222,124,146,204,120,136,211,91,205,36,9,176,4,13]},"announce":[],"urlList":[]}}